<svg xmlns="http://www.w3.org/2000/svg" width="32" height="32" viewBox="0 0 32 32">
  <rect width="32" height="32" rx="8" fill="#0f172a"/>
  
  <!-- Wrench representing "Builder" -->
  <g transform="translate(4, 4)">
    <path d="M14.7 6.3a1 1 0 0 0 0 1.4l1.6 1.6a1 1 0 0 0 1.4 0l3.77-3.77a6 6 0 0 1-7.94 7.94l-6.91 6.91a2.12 2.12 0 0 1-3-3l6.91-6.91a6 6 0 0 1 7.94-7.94l-3.76 3.76z" fill="none" stroke="#2dd4bf" stroke-width="2" stroke-linecap="round" stroke-linejoin="round"/>
  </g>

  <!-- Magic Sparkles representing "AI / Auto" -->
  <path d="M7 3 Q8.5 6.5 12 8 Q8.5 9.5 7 13 Q5.5 9.5 2 8 Q5.5 6.5 7 3 Z" fill="#f8fafc"/>
  <path d="M26 19 Q27 21.5 29.5 22.5 Q27 23.5 26 26 Q25 23.5 22.5 22.5 Q25 21.5 26 19 Z" fill="#f8fafc"/>
</svg>
